# xmcd CD database file
#
# Track frame offsets:
#	150
#	9978
#	21443
#	31045
#	42173
#	53780
#	61715
#	99719
#	108464
#	121886
#	148931
#	165477
#	186641
#	192936
#	204826
#	207532
#
# Disc length: 2950 seconds
#
# Revision: 0
# Processed by: cddbd v1.5.2PL0 Copyright (c) Steve Scherf et al.
# Submitted via: CDex 1.51
#
DISCID=de0b8410
DTITLE=Andreas Vollenweider and Hans Vollenweider - Traumgarten - Garden of Dreams
DYEAR=2008
DGENRE=New Age
TTITLE0=Jacob's Dream
TTITLE1=Dance of the Essence on the Glassy Light Mountains
TTITLE2=The Moon and the Cloud Rider
TTITLE3=The Fisherman and his Wife on the Yangtse River
TTITLE4=Elegie
TTITLE5=Phoenix
TTITLE6=The Metaphors
TTITLE7=The Sermon of the Birds
TTITLE8=A Love Song
TTITLE9=A Walk with my Father - Summer Rain
TTITLE10=Play of Colors
TTITLE11=Hommage 
TTITLE12=May Green Be the Grass...
TTITLE13=The Secret and the Candle 
TTITLE14=Vespers Bell
TTITLE15=Farewell at the Great Gate
EXTD=YEAR: 2008
EXTT0=
EXTT1=
EXTT2=
EXTT3=
EXTT4=
EXTT5=
EXTT6=
EXTT7=
EXTT8=
EXTT9=
EXTT10=
EXTT11=
EXTT12=
EXTT13=
EXTT14=
EXTT15=
PLAYORDER=
